<?xml version="1.0" standalone="no"?>
<!DOCTYPE svg PUBLIC "-//W3C//DTD SVG 20010904//EN"
 "http://www.w3.org/TR/2001/REC-SVG-20010904/DTD/svg10.dtd">
<svg version="1.0" xmlns="http://www.w3.org/2000/svg"
 width="31.000000pt" height="30.000000pt" viewBox="0 0 31.000000 30.000000"
 preserveAspectRatio="xMidYMid meet">

<g transform="translate(0.000000,30.000000) scale(0.100000,-0.100000)"
fill="#000000" stroke="none">
<path d="M111 269 c-9 -27 -14 -30 -39 -24 -24 5 -32 1 -46 -20 -16 -24 -16
-28 -2 -44 20 -22 20 -40 0 -62 -15 -17 -15 -20 1 -45 13 -20 23 -25 41 -21
27 5 54 -15 54 -39 0 -25 74 -14 79 11 5 26 19 35 51 29 20 -4 28 0 42 23 16
28 16 30 -3 41 -23 15 -25 39 -4 62 13 15 14 22 3 44 -10 24 -16 27 -46 21
-30 -6 -34 -4 -45 24 -9 26 -17 31 -43 31 -27 0 -34 -5 -43 -31z m81 -86 c22
-20 23 -46 2 -67 -24 -24 -61 -20 -80 9 -15 23 -15 27 0 50 19 29 51 32 78 8z"/>
</g>
</svg>
